<mxfile host="app.diagrams.net" modified="2022-04-23T18:43:53.186Z" agent="5.0 (Windows NT 10.0; Win64; x64) AppleWebKit/537.36 (KHTML, like Gecko) Chrome/99.0.4844.84 Safari/537.36" etag="ma5ieCJQ7DTo3SpQJLmI" version="17.4.5" type="github">
  <diagram id="kgpKYQtTHZ0yAKxKKP6v" name="Polling data Kafka Consumer">
    <mxGraphModel dx="1422" dy="794" grid="0" gridSize="10" guides="1" tooltips="1" connect="1" arrows="1" fold="1" page="1" pageScale="1" pageWidth="850" pageHeight="1100" math="0" shadow="0">
      <root>
        <mxCell id="0" />
        <mxCell id="1" parent="0" />
        <mxCell id="n0Qw8HLsbLLvSBlnaumX-17" style="edgeStyle=orthogonalEdgeStyle;rounded=0;orthogonalLoop=1;jettySize=auto;html=1;" edge="1" parent="1" source="xih2-5BVRlrgKrml7yA8-11" target="xih2-5BVRlrgKrml7yA8-12">
          <mxGeometry relative="1" as="geometry" />
        </mxCell>
        <mxCell id="xih2-5BVRlrgKrml7yA8-11" value="fetch records" style="rounded=1;whiteSpace=wrap;html=1;" parent="1" vertex="1">
          <mxGeometry x="313" y="629" width="120" height="60" as="geometry" />
        </mxCell>
        <mxCell id="n0Qw8HLsbLLvSBlnaumX-18" style="edgeStyle=orthogonalEdgeStyle;rounded=0;orthogonalLoop=1;jettySize=auto;html=1;" edge="1" parent="1" source="xih2-5BVRlrgKrml7yA8-12" target="xih2-5BVRlrgKrml7yA8-13">
          <mxGeometry relative="1" as="geometry" />
        </mxCell>
        <mxCell id="xih2-5BVRlrgKrml7yA8-12" value="revice fetch request" style="rounded=1;whiteSpace=wrap;html=1;" parent="1" vertex="1">
          <mxGeometry x="584.75" y="629" width="120" height="60" as="geometry" />
        </mxCell>
        <mxCell id="n0Qw8HLsbLLvSBlnaumX-19" value="" style="edgeStyle=orthogonalEdgeStyle;rounded=0;orthogonalLoop=1;jettySize=auto;html=1;" edge="1" parent="1" source="xih2-5BVRlrgKrml7yA8-13" target="n0Qw8HLsbLLvSBlnaumX-5">
          <mxGeometry relative="1" as="geometry" />
        </mxCell>
        <mxCell id="xih2-5BVRlrgKrml7yA8-13" value="collect records as bytes" style="rounded=1;whiteSpace=wrap;html=1;" parent="1" vertex="1">
          <mxGeometry x="584.75" y="738" width="120" height="60" as="geometry" />
        </mxCell>
        <mxCell id="n0Qw8HLsbLLvSBlnaumX-9" value="" style="edgeStyle=orthogonalEdgeStyle;rounded=0;orthogonalLoop=1;jettySize=auto;html=1;" edge="1" parent="1" source="xih2-5BVRlrgKrml7yA8-14" target="xih2-5BVRlrgKrml7yA8-18">
          <mxGeometry relative="1" as="geometry" />
        </mxCell>
        <mxCell id="xih2-5BVRlrgKrml7yA8-14" value="poll records" style="rounded=1;whiteSpace=wrap;html=1;" parent="1" vertex="1">
          <mxGeometry x="149" y="421" width="120" height="60" as="geometry" />
        </mxCell>
        <mxCell id="n0Qw8HLsbLLvSBlnaumX-11" value="no" style="edgeStyle=orthogonalEdgeStyle;rounded=0;orthogonalLoop=1;jettySize=auto;html=1;" edge="1" parent="1" source="xih2-5BVRlrgKrml7yA8-15" target="xih2-5BVRlrgKrml7yA8-11">
          <mxGeometry relative="1" as="geometry">
            <Array as="points">
              <mxPoint x="274" y="661" />
              <mxPoint x="274" y="661" />
            </Array>
          </mxGeometry>
        </mxCell>
        <mxCell id="n0Qw8HLsbLLvSBlnaumX-12" value="yes" style="edgeStyle=orthogonalEdgeStyle;rounded=0;orthogonalLoop=1;jettySize=auto;html=1;" edge="1" parent="1" source="xih2-5BVRlrgKrml7yA8-15" target="xih2-5BVRlrgKrml7yA8-16">
          <mxGeometry relative="1" as="geometry" />
        </mxCell>
        <mxCell id="xih2-5BVRlrgKrml7yA8-15" value="" style="rhombus;whiteSpace=wrap;html=1;" parent="1" vertex="1">
          <mxGeometry x="169" y="619" width="80" height="80" as="geometry" />
        </mxCell>
        <mxCell id="n0Qw8HLsbLLvSBlnaumX-16" style="edgeStyle=orthogonalEdgeStyle;rounded=0;orthogonalLoop=1;jettySize=auto;html=1;" edge="1" parent="1" source="xih2-5BVRlrgKrml7yA8-16" target="n0Qw8HLsbLLvSBlnaumX-13">
          <mxGeometry relative="1" as="geometry" />
        </mxCell>
        <mxCell id="xih2-5BVRlrgKrml7yA8-16" value="poll records in cache" style="rounded=1;whiteSpace=wrap;html=1;" parent="1" vertex="1">
          <mxGeometry x="149" y="1098" width="120" height="60" as="geometry" />
        </mxCell>
        <mxCell id="n0Qw8HLsbLLvSBlnaumX-10" value="" style="edgeStyle=orthogonalEdgeStyle;rounded=0;orthogonalLoop=1;jettySize=auto;html=1;" edge="1" parent="1" source="xih2-5BVRlrgKrml7yA8-18" target="xih2-5BVRlrgKrml7yA8-15">
          <mxGeometry relative="1" as="geometry" />
        </mxCell>
        <mxCell id="xih2-5BVRlrgKrml7yA8-18" value="check cache" style="rounded=1;whiteSpace=wrap;html=1;" parent="1" vertex="1">
          <mxGeometry x="149" y="520" width="120" height="60" as="geometry" />
        </mxCell>
        <mxCell id="n0Qw8HLsbLLvSBlnaumX-23" style="edgeStyle=orthogonalEdgeStyle;rounded=0;orthogonalLoop=1;jettySize=auto;html=1;" edge="1" parent="1" source="xih2-5BVRlrgKrml7yA8-19" target="xih2-5BVRlrgKrml7yA8-20">
          <mxGeometry relative="1" as="geometry" />
        </mxCell>
        <mxCell id="xih2-5BVRlrgKrml7yA8-19" value="revice records from fetch response" style="rounded=1;whiteSpace=wrap;html=1;" parent="1" vertex="1">
          <mxGeometry x="313" y="989" width="120" height="60" as="geometry" />
        </mxCell>
        <mxCell id="n0Qw8HLsbLLvSBlnaumX-25" value="" style="edgeStyle=orthogonalEdgeStyle;rounded=0;orthogonalLoop=1;jettySize=auto;html=1;" edge="1" parent="1" source="xih2-5BVRlrgKrml7yA8-20" target="xih2-5BVRlrgKrml7yA8-16">
          <mxGeometry relative="1" as="geometry" />
        </mxCell>
        <mxCell id="xih2-5BVRlrgKrml7yA8-20" value="put records to cache" style="rounded=1;whiteSpace=wrap;html=1;" parent="1" vertex="1">
          <mxGeometry x="313" y="1098" width="120" height="60" as="geometry" />
        </mxCell>
        <mxCell id="n0Qw8HLsbLLvSBlnaumX-1" value="&lt;span style=&quot;color: rgb(240 , 240 , 240) ; font-family: &amp;#34;helvetica&amp;#34; ; font-size: 12px ; font-style: normal ; letter-spacing: normal ; text-align: center ; text-indent: 0px ; text-transform: none ; word-spacing: 0px ; background-color: rgb(42 , 42 , 42) ; display: inline ; float: none&quot;&gt;&lt;b&gt;fetch.min.bytes&lt;/b&gt;&lt;/span&gt;&lt;span style=&quot;color: rgb(240 , 240 , 240) ; font-family: &amp;#34;helvetica&amp;#34; ; font-size: 12px ; font-style: normal ; font-weight: 400 ; letter-spacing: normal ; text-align: center ; text-indent: 0px ; text-transform: none ; word-spacing: 0px ; background-color: rgb(42 , 42 , 42) ; display: inline ; float: none&quot;&gt; &amp;lt; current bytes &amp;lt; &lt;/span&gt;&lt;span style=&quot;color: rgb(240 , 240 , 240) ; font-family: &amp;#34;helvetica&amp;#34; ; font-size: 12px ; font-style: normal ; letter-spacing: normal ; text-align: center ; text-indent: 0px ; text-transform: none ; word-spacing: 0px ; background-color: rgb(42 , 42 , 42) ; display: inline ; float: none&quot;&gt;&lt;b&gt;fetch.max.bytes?&lt;/b&gt;&lt;/span&gt;" style="text;whiteSpace=wrap;html=1;" vertex="1" parent="1">
          <mxGeometry x="503" y="935" width="289.5" height="28" as="geometry" />
        </mxCell>
        <mxCell id="n0Qw8HLsbLLvSBlnaumX-22" style="edgeStyle=orthogonalEdgeStyle;rounded=0;orthogonalLoop=1;jettySize=auto;html=1;entryX=1;entryY=0.5;entryDx=0;entryDy=0;" edge="1" parent="1" source="n0Qw8HLsbLLvSBlnaumX-4" target="xih2-5BVRlrgKrml7yA8-19">
          <mxGeometry relative="1" as="geometry" />
        </mxCell>
        <mxCell id="n0Qw8HLsbLLvSBlnaumX-4" value="return records as bytes" style="rounded=1;whiteSpace=wrap;html=1;" vertex="1" parent="1">
          <mxGeometry x="584.75" y="1098" width="120" height="60" as="geometry" />
        </mxCell>
        <mxCell id="n0Qw8HLsbLLvSBlnaumX-35" style="edgeStyle=orthogonalEdgeStyle;rounded=0;orthogonalLoop=1;jettySize=auto;html=1;" edge="1" parent="1" source="n0Qw8HLsbLLvSBlnaumX-5" target="n0Qw8HLsbLLvSBlnaumX-4">
          <mxGeometry relative="1" as="geometry" />
        </mxCell>
        <mxCell id="n0Qw8HLsbLLvSBlnaumX-37" value="yes" style="edgeLabel;html=1;align=center;verticalAlign=middle;resizable=0;points=[];" vertex="1" connectable="0" parent="n0Qw8HLsbLLvSBlnaumX-35">
          <mxGeometry x="-0.1694" y="-2" relative="1" as="geometry">
            <mxPoint as="offset" />
          </mxGeometry>
        </mxCell>
        <mxCell id="n0Qw8HLsbLLvSBlnaumX-39" value="no" style="edgeStyle=orthogonalEdgeStyle;rounded=0;orthogonalLoop=1;jettySize=auto;html=1;entryX=0;entryY=0.5;entryDx=0;entryDy=0;" edge="1" parent="1" source="n0Qw8HLsbLLvSBlnaumX-5" target="n0Qw8HLsbLLvSBlnaumX-6">
          <mxGeometry relative="1" as="geometry" />
        </mxCell>
        <mxCell id="n0Qw8HLsbLLvSBlnaumX-5" value="" style="rhombus;whiteSpace=wrap;html=1;" vertex="1" parent="1">
          <mxGeometry x="604.75" y="850" width="80" height="80" as="geometry" />
        </mxCell>
        <mxCell id="n0Qw8HLsbLLvSBlnaumX-15" value="" style="edgeStyle=orthogonalEdgeStyle;rounded=0;orthogonalLoop=1;jettySize=auto;html=1;" edge="1" parent="1" source="n0Qw8HLsbLLvSBlnaumX-14" target="xih2-5BVRlrgKrml7yA8-14">
          <mxGeometry relative="1" as="geometry" />
        </mxCell>
        <mxCell id="n0Qw8HLsbLLvSBlnaumX-14" value="" style="ellipse;whiteSpace=wrap;html=1;aspect=fixed;" vertex="1" parent="1">
          <mxGeometry x="32" y="431.5" width="39" height="39" as="geometry" />
        </mxCell>
        <mxCell id="n0Qw8HLsbLLvSBlnaumX-31" value="Consumer" style="swimlane;" vertex="1" parent="1">
          <mxGeometry x="20" y="346" width="444" height="943" as="geometry">
            <mxRectangle x="20" y="346" width="129" height="23" as="alternateBounds" />
          </mxGeometry>
        </mxCell>
        <mxCell id="n0Qw8HLsbLLvSBlnaumX-41" value="&lt;span style=&quot;color: rgb(240, 240, 240); font-family: helvetica; font-size: 12px; font-style: normal; font-weight: 400; letter-spacing: normal; text-align: center; text-indent: 0px; text-transform: none; word-spacing: 0px; background-color: rgb(42, 42, 42); display: inline; float: none;&quot;&gt;remain data?&lt;/span&gt;" style="text;whiteSpace=wrap;html=1;" vertex="1" parent="n0Qw8HLsbLLvSBlnaumX-31">
          <mxGeometry x="70" y="302" width="90" height="28" as="geometry" />
        </mxCell>
        <mxCell id="n0Qw8HLsbLLvSBlnaumX-13" value="" style="ellipse;shape=doubleEllipse;whiteSpace=wrap;html=1;aspect=fixed;" vertex="1" parent="n0Qw8HLsbLLvSBlnaumX-31">
          <mxGeometry x="169" y="876" width="40" height="40" as="geometry" />
        </mxCell>
        <mxCell id="n0Qw8HLsbLLvSBlnaumX-32" value="Broker" style="swimlane;" vertex="1" parent="1">
          <mxGeometry x="465" y="346" width="488" height="943" as="geometry">
            <mxRectangle x="20" y="346" width="129" height="23" as="alternateBounds" />
          </mxGeometry>
        </mxCell>
        <mxCell id="n0Qw8HLsbLLvSBlnaumX-6" value="" style="rhombus;whiteSpace=wrap;html=1;" vertex="1" parent="n0Qw8HLsbLLvSBlnaumX-32">
          <mxGeometry x="295" y="504" width="80" height="80" as="geometry" />
        </mxCell>
        <mxCell id="n0Qw8HLsbLLvSBlnaumX-3" value="&lt;span style=&quot;color: rgb(240 , 240 , 240) ; font-family: &amp;#34;helvetica&amp;#34; ; font-size: 12px ; font-style: normal ; font-weight: 400 ; letter-spacing: normal ; text-align: center ; text-indent: 0px ; text-transform: none ; word-spacing: 0px ; background-color: rgb(42 , 42 , 42) ; display: inline ; float: none&quot;&gt;exceeds&amp;nbsp;&lt;/span&gt;&lt;b style=&quot;color: rgb(240 , 240 , 240) ; font-family: &amp;#34;helvetica&amp;#34; ; font-size: 12px ; font-style: normal ; letter-spacing: normal ; text-align: center ; text-indent: 0px ; text-transform: none ; word-spacing: 0px ; background-color: rgb(42 , 42 , 42)&quot;&gt;fetch.max.wait.ms?&lt;/b&gt;" style="text;whiteSpace=wrap;html=1;" vertex="1" parent="n0Qw8HLsbLLvSBlnaumX-32">
          <mxGeometry x="249.5" y="471" width="171" height="28" as="geometry" />
        </mxCell>
        <mxCell id="n0Qw8HLsbLLvSBlnaumX-38" value="yes" style="edgeStyle=orthogonalEdgeStyle;rounded=0;orthogonalLoop=1;jettySize=auto;html=1;entryX=1;entryY=0.5;entryDx=0;entryDy=0;exitX=0.5;exitY=1;exitDx=0;exitDy=0;" edge="1" parent="1" source="n0Qw8HLsbLLvSBlnaumX-6" target="n0Qw8HLsbLLvSBlnaumX-4">
          <mxGeometry relative="1" as="geometry">
            <Array as="points">
              <mxPoint x="800" y="1128" />
            </Array>
          </mxGeometry>
        </mxCell>
        <mxCell id="n0Qw8HLsbLLvSBlnaumX-40" value="no" style="edgeStyle=orthogonalEdgeStyle;rounded=0;orthogonalLoop=1;jettySize=auto;html=1;entryX=1;entryY=0.5;entryDx=0;entryDy=0;" edge="1" parent="1" source="n0Qw8HLsbLLvSBlnaumX-6" target="xih2-5BVRlrgKrml7yA8-13">
          <mxGeometry x="-0.3353" relative="1" as="geometry">
            <Array as="points">
              <mxPoint x="925" y="890" />
              <mxPoint x="925" y="768" />
            </Array>
            <mxPoint as="offset" />
          </mxGeometry>
        </mxCell>
      </root>
    </mxGraphModel>
  </diagram>
</mxfile>
